<svg version="1.1" id="Layer_1" xmlns="http://www.w3.org/2000/svg" xmlns:xlink="http://www.w3.org/1999/xlink" x="0px" y="0px"
	 width="100%" viewBox="0 0 512 512" enable-background="new 0 0 512 512" xml:space="preserve">
<path fill="#010101" opacity="1.000000" stroke="none" 
	d="
M318.000000,0.999998 
	C382.986267,1.000000 447.972534,1.000000 512.979370,1.000000 
	C512.979370,171.616882 512.979370,342.233765 512.979370,512.925293 
	C342.419189,512.925293 171.838348,512.925293 1.128750,512.925293 
	C1.128750,342.455292 1.128750,171.910477 1.128750,1.000000 
	C102.689697,1.000000 204.379837,1.000000 306.801208,1.338015 
	C306.939911,2.979409 306.412872,4.317562 305.742493,5.579567 
	C303.838165,9.164523 305.644165,12.213584 308.388977,13.438416 
	C310.784760,14.507489 314.518860,14.420717 316.874268,13.254427 
	C319.606354,11.901638 321.123657,8.804200 319.132233,5.262287 
	C318.434662,4.021546 318.359436,2.430871 318.000000,0.999998 
M228.764328,323.898651 
	C227.600906,326.286713 225.432770,328.670532 225.422577,331.063507 
	C225.222992,377.880890 225.259674,424.699310 225.294250,471.517548 
	C225.298462,477.215942 226.842056,478.772003 232.587326,479.340607 
	C234.404434,479.520416 236.241547,479.557831 238.069550,479.558716 
	C265.560669,479.571716 293.051819,479.567841 320.542938,479.567719 
	C355.531647,479.567505 390.520386,479.588531 425.509064,479.553009 
	C435.394196,479.542969 436.466858,478.412689 436.467255,468.745667 
	C436.469086,423.426971 436.471832,378.108246 436.464203,332.789551 
	C436.462830,324.657318 434.935059,323.122620 426.910522,323.122223 
	C362.931183,323.118988 298.951813,323.116882 234.972458,323.138031 
	C233.158630,323.138641 231.344910,323.402283 228.764328,323.898651 
M215.237061,428.500000 
	C215.237061,400.558197 215.237061,372.616394 215.237061,344.758331 
	C207.663116,343.126831 201.279648,343.057953 196.881226,350.230774 
	C195.345505,352.735168 192.867294,354.664032 190.806961,356.843872 
	C184.351425,363.673889 179.006882,363.497101 172.963837,356.196564 
	C164.359146,345.801300 155.710144,335.440765 147.261246,324.919922 
	C145.207336,322.362305 143.327988,321.585571 140.057404,322.439850 
	C123.319801,326.811493 106.512566,330.916168 89.736343,335.140656 
	C77.563278,338.206055 70.604370,347.000793 69.965492,359.529907 
	C69.193726,374.664948 68.136772,389.785278 67.269669,404.915771 
	C66.740669,414.146515 66.336700,423.384430 65.875862,432.633362 
	C79.636909,432.633362 92.694305,432.633362 106.016502,432.633362 
	C106.016502,426.620575 106.014725,420.970551 106.016945,415.320557 
	C106.019829,407.988251 105.961990,400.655060 106.059631,393.324005 
	C106.103348,390.041138 107.725060,387.855164 111.262123,387.977875 
	C114.529312,388.091217 115.878952,390.229279 115.994987,393.288788 
	C116.045486,394.620209 116.018173,395.954742 116.018242,397.287872 
	C116.019264,417.951721 116.018997,438.615601 116.019020,459.279449 
	C116.019020,461.052856 116.019020,462.826233 116.019020,464.897217 
	C136.414841,464.897217 156.211487,465.021271 176.002884,464.755585 
	C178.784409,464.718262 182.146988,463.445892 184.200134,461.592529 
	C191.928848,454.615875 200.895126,452.291473 210.973145,452.972809 
	C212.244904,453.058777 213.540680,452.789185 215.237305,452.650757 
	C215.237305,444.764099 215.237305,437.132050 215.237061,428.500000 
M296.950287,143.454926 
	C300.777374,144.439331 304.604462,145.423721 308.580017,146.446320 
	C308.580017,129.947861 309.722290,113.413948 308.325562,97.097397 
	C305.933838,69.157463 275.724823,55.781223 253.651764,68.026627 
	C249.465836,70.348831 246.678452,68.989410 243.996231,65.230949 
	C236.354080,54.522308 225.978851,48.737221 212.591049,48.840809 
	C204.760605,48.901402 196.924973,48.701000 189.099442,48.909382 
	C166.926483,49.499825 149.026428,58.880123 135.084259,75.901581 
	C123.347687,90.230316 119.232552,107.110603 119.236183,125.262405 
	C119.237526,131.993362 119.236404,138.724319 119.236404,145.570892 
	C123.902908,144.641769 127.805626,143.943146 131.661194,143.042633 
	C132.642120,142.813507 133.837250,142.154099 134.313553,141.332642 
	C137.204193,136.347351 141.331924,135.699127 146.700989,136.565750 
	C175.406662,141.199066 200.600128,135.135391 219.948105,111.812317 
	C223.968277,106.966209 229.076035,106.527298 233.967819,110.873787 
	C247.210159,122.639915 263.063995,127.151268 280.262451,128.112427 
	C289.137909,128.608444 291.875122,130.921722 292.633453,139.650070 
	C292.855194,142.202301 293.661194,143.307343 296.950287,143.454926 
M162.706970,212.997162 
	C156.452728,211.343430 150.198486,209.689713 143.681137,207.966400 
	C145.275650,232.778290 156.647980,252.746902 179.132431,265.164856 
	C204.818832,279.351196 230.384216,277.460876 254.325287,260.506378 
	C272.002777,247.987595 284.770569,222.074875 281.458710,206.709061 
	C274.670380,212.327194 266.775421,213.442734 258.425781,213.034286 
	C254.103333,212.822861 249.761169,213.052979 245.429581,212.982132 
	C230.877747,212.744156 219.590027,201.872467 218.710022,187.289261 
	C218.591492,185.325058 218.521210,183.357956 218.420166,181.213272 
	C214.760864,181.213272 211.366547,181.213272 207.782364,181.213272 
	C207.782364,182.661926 207.808426,183.818176 207.778427,184.972992 
	C207.340897,201.820267 195.976166,212.948700 179.158234,212.995026 
	C173.992325,213.009262 168.826340,212.997314 162.706970,212.997162 
M108.500000,503.000305 
	C139.792725,503.000305 171.085464,503.000305 201.055710,503.000305 
	C201.055710,497.118805 199.855957,491.172211 201.358871,486.012909 
	C203.244904,479.538361 210.031036,479.347717 215.797729,479.493927 
	C215.511002,473.651215 215.255066,468.435638 214.994583,463.127411 
	C206.824478,462.937286 198.930573,461.918549 192.436188,467.933716 
	C186.910233,473.051849 180.240067,475.063507 172.759018,475.028137 
	C154.267029,474.940674 135.774353,475.013031 117.281975,474.993469 
	C109.123451,474.984833 106.063644,471.958801 106.029510,463.905243 
	C106.000175,456.985779 106.023422,450.066071 106.023422,443.379211 
	C91.943787,443.379211 78.545532,443.379211 65.157639,443.379211 
	C64.098312,461.380249 63.166729,479.010406 61.954597,496.621216 
	C61.626007,501.395264 63.048660,503.191681 68.018082,503.090820 
	C81.173920,502.823883 94.338745,503.000305 108.500000,503.000305 
M370.500244,489.569000 
	C317.099976,489.569000 263.699738,489.569000 210.374710,489.569000 
	C209.475006,498.239197 214.304443,502.988037 223.411560,502.990143 
	C295.024384,503.006592 366.637177,502.999420 438.250000,502.997192 
	C439.248901,502.997162 440.254272,503.034241 441.245667,502.939331 
	C447.957855,502.296661 452.066467,497.359344 451.689758,489.568909 
	C424.991150,489.568909 398.245697,489.568909 370.500244,489.569000 
M277.384460,138.064896 
	C258.866302,136.629608 241.882263,131.192017 227.490387,118.637405 
	C205.151443,144.578293 176.471451,151.349960 143.894958,146.477936 
	C143.894958,149.882782 143.894958,152.831467 143.894958,154.751755 
	C150.043274,154.160416 156.044601,153.312653 162.070099,153.073059 
	C169.388626,152.782043 176.727982,152.958786 184.057419,153.027908 
	C186.706573,153.052872 189.435226,152.997971 191.986130,153.589554 
	C201.084747,155.699631 205.810547,162.127655 207.806747,170.712433 
	C211.628418,170.712433 215.088150,170.712433 218.484833,170.712433 
	C222.008011,157.994614 228.580017,153.010666 241.616211,153.004425 
	C247.280380,153.001709 252.947723,152.883408 258.607941,153.033127 
	C266.471924,153.241150 274.558899,151.622238 282.481476,156.397217 
	C282.481476,151.210205 282.274750,146.756027 282.548706,142.331604 
	C282.757599,138.957565 281.414185,137.777740 277.384460,138.064896 
M180.634613,302.353424 
	C185.093903,307.070343 189.572495,311.769165 194.006882,316.509369 
	C198.211258,321.003693 203.356644,324.995789 206.246490,330.226318 
	C208.716629,334.697174 211.337509,334.289154 214.949936,333.984833 
	C215.088074,333.263947 215.238113,332.800507 215.257812,332.331604 
	C215.832581,318.654449 220.889145,313.669403 234.569763,313.064392 
	C236.066467,312.998230 237.884186,312.429291 238.933975,311.437958 
	C242.428055,308.138428 245.639877,304.539978 248.049835,302.011078 
	C245.939651,293.727814 244.060791,286.352539 242.140579,278.814972 
	C223.580994,285.861298 204.512146,286.047760 185.358994,279.400452 
	C184.871399,283.152740 184.804153,286.687897 183.876648,289.980682 
	C182.899414,293.449951 181.061951,296.672302 179.705322,300.044739 
	C179.518707,300.508667 179.936661,301.215759 180.634613,302.353424 
M197.796112,176.721710 
	C197.696121,166.252747 194.438004,162.999054 184.038849,162.995270 
	C174.714722,162.991882 165.389893,162.925476 156.066711,163.019440 
	C149.522125,163.085388 145.378937,167.023056 145.121185,173.445923 
	C144.941086,177.933746 144.873795,182.449402 145.155243,186.927536 
	C145.721893,195.943390 152.825882,202.754608 161.817871,202.971039 
	C168.307632,203.127243 174.808167,203.140884 181.296783,202.960892 
	C189.163956,202.742645 195.709457,197.334290 197.134491,189.572968 
	C197.847397,185.690201 197.605942,181.632187 197.796112,176.721710 
M254.500000,162.996704 
	C249.341629,162.997528 244.180557,162.893875 239.025574,163.026321 
	C232.953369,163.182343 229.017090,166.876297 228.713547,172.924301 
	C228.472122,177.734894 228.438110,182.586731 228.769897,187.388596 
	C229.381042,196.233383 236.316788,202.748215 245.207474,202.964539 
	C251.693130,203.122330 258.190338,203.146591 264.674225,202.954391 
	C273.672943,202.687653 280.677795,195.672470 281.020386,186.709274 
	C281.185486,182.389023 281.153046,178.055649 281.050171,173.732010 
	C280.888794,166.951447 276.907745,163.115494 269.975769,163.011337 
	C265.151276,162.938828 260.324799,162.996933 254.500000,162.996704 
M318.167572,181.031815 
	C319.593231,163.981186 304.163055,152.230331 292.640625,153.542557 
	C292.640625,170.572433 292.640625,187.626541 292.640625,204.661713 
	C304.917358,205.937164 316.296967,195.659714 318.167572,181.031815 
M133.714478,190.493042 
	C133.714478,178.100632 133.714478,165.708221 133.714478,153.304901 
	C117.238228,153.873749 106.011261,167.275253 108.035713,183.042465 
	C109.660751,195.698990 122.603157,206.599808 133.714462,204.363724 
	C133.714462,200.113495 133.714462,195.800964 133.714478,190.493042 
M163.951920,329.556702 
	C169.945206,336.812592 175.938492,344.068451 182.137527,351.573425 
	C187.569794,345.658478 192.494629,340.296051 197.598587,334.738586 
	C187.429153,324.064117 177.586060,313.732208 167.577179,303.226257 
	C162.585159,307.777405 157.932373,312.019318 153.128036,316.399384 
	C156.734924,320.790894 160.112793,324.903534 163.951920,329.556702 
M357.075928,62.749073 
	C358.474548,62.496819 359.900696,62.345436 361.266541,61.972954 
	C365.005402,60.953304 368.360626,59.620312 368.030701,54.675533 
	C367.735229,50.247387 365.629059,48.182529 360.731232,48.007683 
	C359.611115,47.967697 358.488342,48.001797 357.416901,48.001797 
	C356.444855,38.983772 355.318054,37.049221 350.763977,37.032944 
	C343.115082,37.005600 343.997894,42.970787 343.861664,47.817883 
	C335.354675,48.228703 333.004608,49.501854 333.080566,53.906754 
	C333.115601,55.938633 333.354614,58.964283 334.623505,59.768539 
	C337.208740,61.407093 340.555298,61.844463 342.590088,62.469929 
	C344.248413,65.938080 344.924286,69.988625 347.297974,71.746117 
	C351.726807,75.025291 358.667297,70.627167 357.075928,62.749073 
M114.444153,275.031860 
	C119.068169,271.086243 123.692184,267.140625 128.207825,263.287476 
	C119.516449,260.829895 113.283821,254.734360 110.370163,244.659622 
	C107.729813,255.282318 101.038643,261.282684 90.690468,263.975403 
	C100.984596,266.744080 107.613617,272.843475 110.179993,284.092682 
	C111.785172,280.458008 112.859238,278.025940 114.444153,275.031860 
M332.549713,219.966278 
	C329.799255,221.827835 327.048828,223.689377 325.209869,224.934021 
	C329.016479,228.580383 333.028473,232.423492 336.251221,235.510559 
	C339.915344,232.204941 344.049530,228.475266 347.283508,225.557709 
	C343.704071,222.024582 339.658142,218.031036 335.712860,214.136826 
	C335.054382,215.445160 334.053436,217.433914 332.549713,219.966278 
M59.531124,300.991730 
	C58.893654,302.267578 58.251041,303.540863 57.619698,304.819733 
	C55.957100,308.187469 57.622025,311.181732 60.181492,312.335815 
	C62.606350,313.429199 66.490913,313.618896 68.609505,312.341583 
	C70.400116,311.262054 71.677719,307.315399 71.257240,304.985077 
	C70.238632,299.340057 66.996819,298.317963 59.531124,300.991730 
M269.355042,313.112885 
	C269.610962,312.702667 270.152618,311.993011 270.081665,311.925293 
	C267.032959,309.015900 263.929840,306.163513 260.668213,303.151672 
	C257.444092,306.615662 254.743530,309.517181 251.377243,313.133942 
	C257.964355,313.133942 263.262054,313.133942 269.355042,313.112885 
z"/>
<path fill="#87D148" opacity="1.000000" stroke="none" 
	d="
M317.541931,0.999998 
	C318.359436,2.430871 318.434662,4.021546 319.132233,5.262287 
	C321.123657,8.804200 319.606354,11.901638 316.874268,13.254427 
	C314.518860,14.420717 310.784760,14.507489 308.388977,13.438416 
	C305.644165,12.213584 303.838165,9.164523 305.742493,5.579567 
	C306.412872,4.317562 306.939911,2.979409 307.266205,1.338015 
	C310.361298,1.000000 313.722565,1.000000 317.541931,0.999998 
z"/>
<path fill="#EBF2FA" opacity="1.000000" stroke="none" 
	d="
M229.147736,323.720947 
	C231.344910,323.402283 233.158630,323.138641 234.972458,323.138031 
	C298.951813,323.116882 362.931183,323.118988 426.910522,323.122223 
	C434.935059,323.122620 436.462830,324.657318 436.464203,332.789551 
	C436.471832,378.108246 436.469086,423.426971 436.467255,468.745667 
	C436.466858,478.412689 435.394196,479.542969 425.509064,479.553009 
	C390.520386,479.588531 355.531647,479.567505 320.542938,479.567719 
	C293.051819,479.567841 265.560669,479.571716 238.069550,479.558716 
	C236.241547,479.557831 234.404434,479.520416 232.587326,479.340607 
	C226.842056,478.772003 225.298462,477.215942 225.294250,471.517548 
	C225.259674,424.699310 225.222992,377.880890 225.422577,331.063507 
	C225.432770,328.670532 227.600906,326.286713 229.147736,323.720947 
M335.123230,351.216736 
	C300.030243,349.789307 274.427307,377.953979 279.893494,411.972534 
	C284.472961,440.472534 313.037262,459.824799 341.653778,453.814972 
	C369.796478,447.904602 388.446808,419.065399 381.413208,391.542633 
	C375.421753,368.097778 359.852020,354.901855 335.123230,351.216736 
z"/>
<path fill="#3A70BF" opacity="1.000000" stroke="none" 
	d="
M215.237183,429.000000 
	C215.237305,437.132050 215.237305,444.764099 215.237305,452.650757 
	C213.540680,452.789185 212.244904,453.058777 210.973145,452.972809 
	C200.895126,452.291473 191.928848,454.615875 184.200134,461.592529 
	C182.146988,463.445892 178.784409,464.718262 176.002884,464.755585 
	C156.211487,465.021271 136.414841,464.897217 116.019020,464.897217 
	C116.019020,462.826233 116.019020,461.052856 116.019020,459.279449 
	C116.018997,438.615601 116.019264,417.951721 116.018242,397.287872 
	C116.018173,395.954742 116.045486,394.620209 115.994987,393.288788 
	C115.878952,390.229279 114.529312,388.091217 111.262123,387.977875 
	C107.725060,387.855164 106.103348,390.041138 106.059631,393.324005 
	C105.961990,400.655060 106.019829,407.988251 106.016945,415.320557 
	C106.014725,420.970551 106.016502,426.620575 106.016502,432.633362 
	C92.694305,432.633362 79.636909,432.633362 65.875862,432.633362 
	C66.336700,423.384430 66.740669,414.146515 67.269669,404.915771 
	C68.136772,389.785278 69.193726,374.664948 69.965492,359.529907 
	C70.604370,347.000793 77.563278,338.206055 89.736343,335.140656 
	C106.512566,330.916168 123.319801,326.811493 140.057404,322.439850 
	C143.327988,321.585571 145.207336,322.362305 147.261246,324.919922 
	C155.710144,335.440765 164.359146,345.801300 172.963837,356.196564 
	C179.006882,363.497101 184.351425,363.673889 190.806961,356.843872 
	C192.867294,354.664032 195.345505,352.735168 196.881226,350.230774 
	C201.279648,343.057953 207.663116,343.126831 215.237061,344.758331 
	C215.237061,372.616394 215.237061,400.558197 215.237183,429.000000 
z"/>
<path fill="#5A5C5F" opacity="1.000000" stroke="none" 
	d="
M296.540436,143.352539 
	C293.661194,143.307343 292.855194,142.202301 292.633453,139.650070 
	C291.875122,130.921722 289.137909,128.608444 280.262451,128.112427 
	C263.063995,127.151268 247.210159,122.639915 233.967819,110.873787 
	C229.076035,106.527298 223.968277,106.966209 219.948105,111.812317 
	C200.600128,135.135391 175.406662,141.199066 146.700989,136.565750 
	C141.331924,135.699127 137.204193,136.347351 134.313553,141.332642 
	C133.837250,142.154099 132.642120,142.813507 131.661194,143.042633 
	C127.805626,143.943146 123.902908,144.641769 119.236404,145.570892 
	C119.236404,138.724319 119.237526,131.993362 119.236183,125.262405 
	C119.232552,107.110603 123.347687,90.230316 135.084259,75.901581 
	C149.026428,58.880123 166.926483,49.499825 189.099442,48.909382 
	C196.924973,48.701000 204.760605,48.901402 212.591049,48.840809 
	C225.978851,48.737221 236.354080,54.522308 243.996231,65.230949 
	C246.678452,68.989410 249.465836,70.348831 253.651764,68.026627 
	C275.724823,55.781223 305.933838,69.157463 308.325562,97.097397 
	C309.722290,113.413948 308.580017,129.947861 308.580017,146.446320 
	C304.604462,145.423721 300.777374,144.439331 296.540436,143.352539 
z"/>
<path fill="#F7CEB3" opacity="1.000000" stroke="none" 
	d="
M163.183685,212.997253 
	C168.826340,212.997314 173.992325,213.009262 179.158234,212.995026 
	C195.976166,212.948700 207.340897,201.820267 207.778427,184.972992 
	C207.808426,183.818176 207.782364,182.661926 207.782364,181.213272 
	C211.366547,181.213272 214.760864,181.213272 218.420166,181.213272 
	C218.521210,183.357956 218.591492,185.325058 218.710022,187.289261 
	C219.590027,201.872467 230.877747,212.744156 245.429581,212.982132 
	C249.761169,213.052979 254.103333,212.822861 258.425781,213.034286 
	C266.775421,213.442734 274.670380,212.327194 281.458710,206.709061 
	C284.770569,222.074875 272.002777,247.987595 254.325287,260.506378 
	C230.384216,277.460876 204.818832,279.351196 179.132431,265.164856 
	C156.647980,252.746902 145.275650,232.778290 143.681137,207.966400 
	C150.198486,209.689713 156.452728,211.343430 163.183685,212.997253 
M226.231934,235.941010 
	C229.587738,233.838135 233.124802,231.970276 236.245819,229.563019 
	C239.086929,227.371674 240.851425,224.238220 237.677551,221.081268 
	C234.799362,218.218475 232.109955,219.768448 229.478958,222.190125 
	C220.739929,230.233871 207.452011,230.212662 198.704956,222.132645 
	C196.047607,219.677917 193.312943,218.256882 190.490845,221.100128 
	C187.334152,224.280487 189.272278,227.192856 191.996323,229.607224 
	C201.860977,238.350494 213.119583,240.060272 226.231934,235.941010 
z"/>
<path fill="#F8CFB3" opacity="1.000000" stroke="none" 
	d="
M108.000000,503.000305 
	C94.338745,503.000305 81.173920,502.823883 68.018082,503.090820 
	C63.048660,503.191681 61.626007,501.395264 61.954597,496.621216 
	C63.166729,479.010406 64.098312,461.380249 65.157639,443.379211 
	C78.545532,443.379211 91.943787,443.379211 106.023422,443.379211 
	C106.023422,450.066071 106.000175,456.985779 106.029510,463.905243 
	C106.063644,471.958801 109.123451,474.984833 117.281975,474.993469 
	C135.774353,475.013031 154.267029,474.940674 172.759018,475.028137 
	C180.240067,475.063507 186.910233,473.051849 192.436188,467.933716 
	C198.930573,461.918549 206.824478,462.937286 214.994583,463.127411 
	C215.255066,468.435638 215.511002,473.651215 215.797729,479.493927 
	C210.031036,479.347717 203.244904,479.538361 201.358871,486.012909 
	C199.855957,491.172211 201.055710,497.118805 201.055710,503.000305 
	C171.085464,503.000305 139.792725,503.000305 108.000000,503.000305 
z"/>
<path fill="#C7D7E5" opacity="1.000000" stroke="none" 
	d="
M371.000244,489.568970 
	C398.245697,489.568909 424.991150,489.568909 451.689758,489.568909 
	C452.066467,497.359344 447.957855,502.296661 441.245667,502.939331 
	C440.254272,503.034241 439.248901,502.997162 438.250000,502.997192 
	C366.637177,502.999420 295.024384,503.006592 223.411560,502.990143 
	C214.304443,502.988037 209.475006,498.239197 210.374710,489.569000 
	C263.699738,489.569000 317.099976,489.569000 371.000244,489.568970 
z"/>
<path fill="#F6CEB2" opacity="1.000000" stroke="none" 
	d="
M277.827576,138.085602 
	C281.414185,137.777740 282.757599,138.957565 282.548706,142.331604 
	C282.274750,146.756027 282.481476,151.210205 282.481476,156.397217 
	C274.558899,151.622238 266.471924,153.241150 258.607941,153.033127 
	C252.947723,152.883408 247.280380,153.001709 241.616211,153.004425 
	C228.580017,153.010666 222.008011,157.994614 218.484833,170.712433 
	C215.088150,170.712433 211.628418,170.712433 207.806747,170.712433 
	C205.810547,162.127655 201.084747,155.699631 191.986130,153.589554 
	C189.435226,152.997971 186.706573,153.052872 184.057419,153.027908 
	C176.727982,152.958786 169.388626,152.782043 162.070099,153.073059 
	C156.044601,153.312653 150.043274,154.160416 143.894958,154.751755 
	C143.894958,152.831467 143.894958,149.882782 143.894958,146.477936 
	C176.471451,151.349960 205.151443,144.578293 227.490387,118.637405 
	C241.882263,131.192017 258.866302,136.629608 277.827576,138.085602 
z"/>
<path fill="#F6CEB2" opacity="1.000000" stroke="none" 
	d="
M180.354675,302.081848 
	C179.936661,301.215759 179.518707,300.508667 179.705322,300.044739 
	C181.061951,296.672302 182.899414,293.449951 183.876648,289.980682 
	C184.804153,286.687897 184.871399,283.152740 185.358994,279.400452 
	C204.512146,286.047760 223.580994,285.861298 242.140579,278.814972 
	C244.060791,286.352539 245.939651,293.727814 248.049835,302.011078 
	C245.639877,304.539978 242.428055,308.138428 238.933975,311.437958 
	C237.884186,312.429291 236.066467,312.998230 234.569763,313.064392 
	C220.889145,313.669403 215.832581,318.654449 215.257812,332.331604 
	C215.238113,332.800507 215.088074,333.263947 214.949936,333.984833 
	C211.337509,334.289154 208.716629,334.697174 206.246490,330.226318 
	C203.356644,324.995789 198.211258,321.003693 194.006882,316.509369 
	C189.572495,311.769165 185.093903,307.070343 180.354675,302.081848 
z"/>
<path fill="#F6CDB2" opacity="1.000000" stroke="none" 
	d="
M197.796112,177.187576 
	C197.605942,181.632187 197.847397,185.690201 197.134491,189.572968 
	C195.709457,197.334290 189.163956,202.742645 181.296783,202.960892 
	C174.808167,203.140884 168.307632,203.127243 161.817871,202.971039 
	C152.825882,202.754608 145.721893,195.943390 145.155243,186.927536 
	C144.873795,182.449402 144.941086,177.933746 145.121185,173.445923 
	C145.378937,167.023056 149.522125,163.085388 156.066711,163.019440 
	C165.389893,162.925476 174.714722,162.991882 184.038849,162.995270 
	C194.438004,162.999054 197.696121,166.252747 197.796112,177.187576 
M186.943619,187.384674 
	C189.218857,183.693588 189.186295,180.077850 186.055771,176.973755 
	C183.271439,174.212936 179.864960,173.940323 176.482712,175.878510 
	C173.211380,177.753174 172.288223,180.762772 172.846802,184.390915 
	C173.658417,189.662460 181.454468,193.347076 186.943619,187.384674 
z"/>
<path fill="#F7CEB2" opacity="1.000000" stroke="none" 
	d="
M254.999603,162.996704 
	C260.324799,162.996933 265.151276,162.938828 269.975769,163.011337 
	C276.907745,163.115494 280.888794,166.951447 281.050171,173.732010 
	C281.153046,178.055649 281.185486,182.389023 281.020386,186.709274 
	C280.677795,195.672470 273.672943,202.687653 264.674225,202.954391 
	C258.190338,203.146591 251.693130,203.122330 245.207474,202.964539 
	C236.316788,202.748215 229.381042,196.233383 228.769897,187.388596 
	C228.438110,182.586731 228.472122,177.734894 228.713547,172.924301 
	C229.017090,166.876297 232.953369,163.182343 239.025574,163.026321 
	C244.180557,162.893875 249.341629,162.997528 254.999603,162.996704 
M252.454758,189.016342 
	C253.376541,186.067398 255.298477,182.969025 254.887589,180.219208 
	C254.586441,178.203751 251.492264,175.900070 249.161774,175.060486 
	C245.755066,173.833221 242.069687,175.332489 240.990860,178.820099 
	C240.176743,181.451996 240.347916,185.225311 241.718842,187.505692 
	C243.924866,191.175095 247.926865,191.479065 252.454758,189.016342 
z"/>
<path fill="#F1C9AE" opacity="1.000000" stroke="none" 
	d="
M318.141907,181.435471 
	C316.296967,195.659714 304.917358,205.937164 292.640625,204.661713 
	C292.640625,187.626541 292.640625,170.572433 292.640625,153.542557 
	C304.163055,152.230331 319.593231,163.981186 318.141907,181.435471 
z"/>
<path fill="#F2CAAF" opacity="1.000000" stroke="none" 
	d="
M133.714478,190.990753 
	C133.714462,195.800964 133.714462,200.113495 133.714462,204.363724 
	C122.603157,206.599808 109.660751,195.698990 108.035713,183.042465 
	C106.011261,167.275253 117.238228,153.873749 133.714478,153.304901 
	C133.714478,165.708221 133.714478,178.100632 133.714478,190.990753 
z"/>
<path fill="#518ED7" opacity="1.000000" stroke="none" 
	d="
M163.721283,329.286438 
	C160.112793,324.903534 156.734924,320.790894 153.128036,316.399384 
	C157.932373,312.019318 162.585159,307.777405 167.577179,303.226257 
	C177.586060,313.732208 187.429153,324.064117 197.598587,334.738586 
	C192.494629,340.296051 187.569794,345.658478 182.137527,351.573425 
	C175.938492,344.068451 169.945206,336.812592 163.721283,329.286438 
z"/>
<path fill="#70D6F9" opacity="1.000000" stroke="none" 
	d="
M357.041321,63.189316 
	C358.667297,70.627167 351.726807,75.025291 347.297974,71.746117 
	C344.924286,69.988625 344.248413,65.938080 342.590088,62.469929 
	C340.555298,61.844463 337.208740,61.407093 334.623505,59.768539 
	C333.354614,58.964283 333.115601,55.938633 333.080566,53.906754 
	C333.004608,49.501854 335.354675,48.228703 343.861664,47.817883 
	C343.997894,42.970787 343.115082,37.005600 350.763977,37.032944 
	C355.318054,37.049221 356.444855,38.983772 357.416901,48.001797 
	C358.488342,48.001797 359.611115,47.967697 360.731232,48.007683 
	C365.629059,48.182529 367.735229,50.247387 368.030701,54.675533 
	C368.360626,59.620312 365.005402,60.953304 361.266541,61.972954 
	C359.900696,62.345436 358.474548,62.496819 357.041321,63.189316 
z"/>
<path fill="#F5C84C" opacity="1.000000" stroke="none" 
	d="
M114.188736,275.312866 
	C112.859238,278.025940 111.785172,280.458008 110.179993,284.092682 
	C107.613617,272.843475 100.984596,266.744080 90.690468,263.975403 
	C101.038643,261.282684 107.729813,255.282318 110.370163,244.659622 
	C113.283821,254.734360 119.516449,260.829895 128.207825,263.287476 
	C123.692184,267.140625 119.068169,271.086243 114.188736,275.312866 
z"/>
<path fill="#FC657D" opacity="1.000000" stroke="none" 
	d="
M332.801086,219.694458 
	C334.053436,217.433914 335.054382,215.445160 335.712860,214.136826 
	C339.658142,218.031036 343.704071,222.024582 347.283508,225.557709 
	C344.049530,228.475266 339.915344,232.204941 336.251221,235.510559 
	C333.028473,232.423492 329.016479,228.580383 325.209869,224.934021 
	C327.048828,223.689377 329.799255,221.827835 332.801086,219.694458 
z"/>
<path fill="#FC657D" opacity="1.000000" stroke="none" 
	d="
M59.820591,300.720123 
	C66.996819,298.317963 70.238632,299.340057 71.257240,304.985077 
	C71.677719,307.315399 70.400116,311.262054 68.609505,312.341583 
	C66.490913,313.618896 62.606350,313.429199 60.181492,312.335815 
	C57.622025,311.181732 55.957100,308.187469 57.619698,304.819733 
	C58.251041,303.540863 58.893654,302.267578 59.820591,300.720123 
z"/>
<path fill="#508CD5" opacity="1.000000" stroke="none" 
	d="
M268.957397,313.123413 
	C263.262054,313.133942 257.964355,313.133942 251.377243,313.133942 
	C254.743530,309.517181 257.444092,306.615662 260.668213,303.151672 
	C263.929840,306.163513 267.032959,309.015900 270.081665,311.925293 
	C270.152618,311.993011 269.610962,312.702667 268.957397,313.123413 
z"/>
<path fill="#050606" opacity="1.000000" stroke="none" 
	d="
M335.573303,351.255981 
	C359.852020,354.901855 375.421753,368.097778 381.413208,391.542633 
	C388.446808,419.065399 369.796478,447.904602 341.653778,453.814972 
	C313.037262,459.824799 284.472961,440.472534 279.893494,411.972534 
	C274.427307,377.953979 300.030243,349.789307 335.573303,351.255981 
M369.933868,387.805176 
	C369.238098,386.298065 368.614716,384.752350 367.835449,383.289703 
	C358.941742,366.596466 339.840332,357.931641 321.369812,362.185760 
	C303.312073,366.344818 289.679901,382.807037 289.063202,401.199127 
	C288.489899,418.295715 297.848816,434.032501 313.333832,440.892548 
	C329.806671,448.190277 345.221558,445.822815 358.852264,434.056427 
	C371.733917,422.936646 375.902161,405.344391 369.933868,387.805176 
z"/>
<path fill="#050504" opacity="1.000000" stroke="none" 
	d="
M225.849350,236.040985 
	C213.119583,240.060272 201.860977,238.350494 191.996323,229.607224 
	C189.272278,227.192856 187.334152,224.280487 190.490845,221.100128 
	C193.312943,218.256882 196.047607,219.677917 198.704956,222.132645 
	C207.452011,230.212662 220.739929,230.233871 229.478958,222.190125 
	C232.109955,219.768448 234.799362,218.218475 237.677551,221.081268 
	C240.851425,224.238220 239.086929,227.371674 236.245819,229.563019 
	C233.124802,231.970276 229.587738,233.838135 225.849350,236.040985 
z"/>
<path fill="#080706" opacity="1.000000" stroke="none" 
	d="
M186.708862,187.672699 
	C181.454468,193.347076 173.658417,189.662460 172.846802,184.390915 
	C172.288223,180.762772 173.211380,177.753174 176.482712,175.878510 
	C179.864960,173.940323 183.271439,174.212936 186.055771,176.973755 
	C189.186295,180.077850 189.218857,183.693588 186.708862,187.672699 
z"/>
<path fill="#080706" opacity="1.000000" stroke="none" 
	d="
M252.141174,189.222076 
	C247.926865,191.479065 243.924866,191.175095 241.718842,187.505692 
	C240.347916,185.225311 240.176743,181.451996 240.990860,178.820099 
	C242.069687,175.332489 245.755066,173.833221 249.161774,175.060486 
	C251.492264,175.900070 254.586441,178.203751 254.887589,180.219208 
	C255.298477,182.969025 253.376541,186.067398 252.141174,189.222076 
z"/>
<path fill="#6ED2F5" opacity="1.000000" stroke="none" 
	d="
M370.034485,388.184692 
	C375.902161,405.344391 371.733917,422.936646 358.852264,434.056427 
	C345.221558,445.822815 329.806671,448.190277 313.333832,440.892548 
	C297.848816,434.032501 288.489899,418.295715 289.063202,401.199127 
	C289.679901,382.807037 303.312073,366.344818 321.369812,362.185760 
	C339.840332,357.931641 358.941742,366.596466 367.835449,383.289703 
	C368.614716,384.752350 369.238098,386.298065 370.034485,388.184692 
M354.077423,419.635773 
	C357.729034,415.559479 361.343567,411.449127 365.045013,407.418579 
	C367.607941,404.627777 367.760376,401.917633 365.193115,399.068024 
	C361.641113,395.125488 358.120880,391.154388 354.589600,387.193207 
	C352.264618,384.585205 349.545959,383.757202 346.807922,386.261780 
	C344.240417,388.610321 344.811981,391.257568 347.001923,393.708649 
	C349.745880,396.779816 352.450806,399.885834 355.352539,403.181213 
	C352.531982,406.352173 349.530640,409.063690 347.426544,412.349701 
	C346.235565,414.209717 345.513611,417.487061 346.362335,419.284729 
	C347.776154,422.279297 350.868011,422.103180 354.077423,419.635773 
M294.850250,403.420685 
	C298.808746,408.447083 302.749878,413.487305 306.732635,418.494415 
	C308.946136,421.277161 311.746704,422.833252 314.830994,420.205292 
	C317.949738,417.547974 316.719391,414.617065 314.341858,411.968781 
	C311.724274,409.052948 309.163391,406.086243 306.551605,403.111877 
	C309.767303,399.456116 312.962616,396.443726 315.299438,392.869965 
	C316.270996,391.384094 316.223633,387.999573 315.154175,386.759094 
	C314.091217,385.526245 310.069550,384.861145 309.232269,385.741516 
	C304.144409,391.091492 299.595612,396.954132 294.850250,403.420685 
M336.618866,384.503479 
	C334.954620,385.910583 332.606812,386.988739 331.744049,388.781555 
	C327.938354,396.690002 324.608734,404.826019 321.003845,412.833313 
	C319.570801,416.016327 319.642334,418.898743 322.979492,420.464172 
	C326.665710,422.193329 328.817657,420.015442 330.258209,416.685364 
	C333.744415,408.626160 337.352966,400.619965 340.866913,392.572601 
	C342.570618,388.670990 341.816345,385.767273 336.618866,384.503479 
z"/>
<path fill="#030607" opacity="1.000000" stroke="none" 
	d="
M353.820374,419.880646 
	C350.868011,422.103180 347.776154,422.279297 346.362335,419.284729 
	C345.513611,417.487061 346.235565,414.209717 347.426544,412.349701 
	C349.530640,409.063690 352.531982,406.352173 355.352539,403.181213 
	C352.450806,399.885834 349.745880,396.779816 347.001923,393.708649 
	C344.811981,391.257568 344.240417,388.610321 346.807922,386.261780 
	C349.545959,383.757202 352.264618,384.585205 354.589600,387.193207 
	C358.120880,391.154388 361.641113,395.125488 365.193115,399.068024 
	C367.760376,401.917633 367.607941,404.627777 365.045013,407.418579 
	C361.343567,411.449127 357.729034,415.559479 353.820374,419.880646 
z"/>
<path fill="#030607" opacity="1.000000" stroke="none" 
	d="
M294.858551,403.033142 
	C299.595612,396.954132 304.144409,391.091492 309.232269,385.741516 
	C310.069550,384.861145 314.091217,385.526245 315.154175,386.759094 
	C316.223633,387.999573 316.270996,391.384094 315.299438,392.869965 
	C312.962616,396.443726 309.767303,399.456116 306.551605,403.111877 
	C309.163391,406.086243 311.724274,409.052948 314.341858,411.968781 
	C316.719391,414.617065 317.949738,417.547974 314.830994,420.205292 
	C311.746704,422.833252 308.946136,421.277161 306.732635,418.494415 
	C302.749878,413.487305 298.808746,408.447083 294.858551,403.033142 
z"/>
<path fill="#030607" opacity="1.000000" stroke="none" 
	d="
M336.973572,384.529602 
	C341.816345,385.767273 342.570618,388.670990 340.866913,392.572601 
	C337.352966,400.619965 333.744415,408.626160 330.258209,416.685364 
	C328.817657,420.015442 326.665710,422.193329 322.979492,420.464172 
	C319.642334,418.898743 319.570801,416.016327 321.003845,412.833313 
	C324.608734,404.826019 327.938354,396.690002 331.744049,388.781555 
	C332.606812,386.988739 334.954620,385.910583 336.973572,384.529602 
z"/>
</svg>